<?xml version="1.0" encoding="utf-8"?>
<!-- Generator: Adobe Illustrator 19.2.0, SVG Export Plug-In . SVG Version: 6.00 Build 0)  -->
<svg version="1.1" xmlns="http://www.w3.org/2000/svg" xmlns:xlink="http://www.w3.org/1999/xlink" x="0px" y="0px"
	 viewBox="0 0 72 72" enable-background="new 0 0 72 72" xml:space="preserve">
<g id="Layer_1" display="none">
	<g id="Calque_1">
		<g display="inline">
			<g>
				<path fill="#262626" d="M36,72C16.1,72,0,55.9,0,36S16.1,0,36,0s36,16.1,36,36S55.9,72,36,72z M36,3C17.8,3,3,17.8,3,36
					s14.8,33,33,33s33-14.8,33-33S54.2,3,36,3z"/>
			</g>
		</g>
		<g display="inline">
			<g>
				<path fill="#262626" d="M33,49.6c-0.1,0-0.2,0-0.3,0c-0.5-0.1-0.9-0.5-1.1-0.9l-9.1-24.3c-0.2-0.6-0.1-1.2,0.3-1.6
					s1-0.6,1.6-0.3l24.3,9.1c0.5,0.2,0.8,0.6,0.9,1.1c0.1,0.5,0,1-0.4,1.4L34,49.2C33.7,49.5,33.3,49.6,33,49.6z M26.4,26.4l7.1,19
					l11.9-11.9L26.4,26.4z"/>
			</g>
			<g>
				<path fill="#262626" d="M48.1,49.6c-0.4,0-0.8-0.1-1.1-0.4l-7.6-7.6c-0.6-0.6-0.6-1.5,0-2.1s1.5-0.6,2.1,0l7.6,7.6
					c0.6,0.6,0.6,1.5,0,2.1C48.9,49.5,48.5,49.6,48.1,49.6z"/>
			</g>
		</g>
	</g>
	<g id="Calque_2" display="inline">
		<g>
			<g>
				<path fill="#262626" d="M36,72C16.1,72,0,55.9,0,36S16.1,0,36,0s36,16.1,36,36S55.9,72,36,72z M36,4.2C18.5,4.2,4.2,18.5,4.2,36
					S18.5,67.8,36,67.8S67.8,53.5,67.8,36S53.5,4.2,36,4.2z"/>
			</g>
		</g>
		<g>
			<path fill="#262626" d="M44.9,54.8c-1.8,0-7.9-0.6-15.9-7.4l-0.1-0.1l-3.7-3.6l-0.1-0.1c-6.6-7.4-7.3-14.6-7.4-16
				c-0.1-1.4,0.2-6.4,6.4-9.7c0.9-0.5,3.3-1.1,4.7,0.2c0.5,0.5,4.8,7.8,4.8,7.8c0.2,0.5,0.4,1,0.4,1.6c0,0.9-0.4,1.8-1.3,2.6
				c-0.5,0.6-1.1,1.1-1.7,1.5c-0.4,0.3-0.8,0.6-1.2,1c0.2,0.6,0.8,1.9,2.6,3.7l3.8,3.4c2,1.6,3.3,2.5,3.9,2.9
				c0.2-0.2,0.5-0.6,0.7-0.9c0.7-0.9,1.2-1.5,1.5-1.8c1.4-1.4,2.9-1.5,4.2-0.9c0.1,0,7.3,4.2,7.9,4.7c1.4,1.4,0.6,3.8,0.3,4.4
				C52.5,53.3,47.6,54.7,44.9,54.8C45,54.8,44.9,54.8,44.9,54.8z M31.8,44.1c7.2,6.2,12.2,6.4,13.1,6.4c0.1,0,4.2,0,5.9-4v-0.1
				c-1.5-0.9-4.5-2.6-5.7-3.3c-0.2,0.3-0.7,0.9-1,1.3c-0.6,0.7-1,1.2-1.2,1.5c-0.3,0.3-1.3,1.3-2.6,1.3c-0.4,0-0.8-0.1-1.3-0.2
				c-0.6-0.2-2.5-1.3-5.6-3.9c0,0,0,0-0.1-0.1l-3.9-3.5l-0.1-0.1c-3.4-3.6-3.9-6.1-3.9-7c0-1.4,1-2.4,1.3-2.7c0.5-0.5,1.1-1,1.7-1.4
				c0.4-0.3,0.7-0.6,1.1-0.9c-0.7-1.1-2.6-4.2-3.5-5.7c-3.9,2.1-4.2,4.7-4.2,5.8c0,0.7,0.5,6.9,6.3,13.3L31.8,44.1z M39.7,43
				L39.7,43L39.7,43z M45.5,42.7L45.5,42.7L45.5,42.7z M29.9,26.9L29.9,26.9L29.9,26.9z"/>
		</g>
	</g>
</g>
<g id="Calque_3_1_">
	<g>
		<g>
			<path fill="#262626" d="M36,72C16.1,72,0,55.9,0,36C0,16.1,16.1,0,36,0c19.9,0,36,16.1,36,36C72,55.9,55.9,72,36,72z M36,4.2
				C18.5,4.2,4.2,18.5,4.2,36c0,17.5,14.2,31.8,31.8,31.8c17.5,0,31.8-14.3,31.8-31.8C67.8,18.5,53.5,4.2,36,4.2z"/>
		</g>
	</g>
	<g>
		<path d="M36,57.9c-0.6,0-1.1-0.2-1.5-0.6c-1.6-1.7-16-16.6-16-25.7c0-9.6,7.8-17.5,17.5-17.5c9.6,0,17.5,7.8,17.5,17.5
			c0,9.1-14.3,24.1-16,25.7C37.1,57.7,36.6,57.9,36,57.9z M36,18.3c-7.3,0-13.3,5.9-13.3,13.3c0,5.6,8.5,16,13.3,21.2
			c4.7-5.2,13.3-15.6,13.3-21.2C49.3,24.2,43.3,18.3,36,18.3z"/>
	</g>
	<g>
		<path d="M36,38.1c-4.4,0-8-3.6-8-8c0-4.4,3.6-8,8-8s8,3.6,8,8C44,34.6,40.4,38.1,36,38.1z M36,26.4c-2,0-3.7,1.7-3.7,3.7
			s1.7,3.7,3.7,3.7c2,0,3.7-1.7,3.7-3.7S38,26.4,36,26.4z"/>
	</g>
</g>
</svg>
